<?xml version="1.0" standalone="no"?>
<!DOCTYPE svg PUBLIC "-//W3C//DTD SVG 1.0//EN" "http://www.w3.org/TR/2001/REC-SVG-20010904/DTD/svg10.dtd">
<svg xmlns="http://www.w3.org/2000/svg" xmlns:xlink="http://www.w3.org/1999/xlink" id="body_1" width="64" height="64">

<defs>
    <linearGradient transform="matrix(1 0 0 1 0 0)"  id="1" x1="64.7997" y1="9.327" x2="64.7997" y2="57.3491">
        <stop stop-color="#BDBDBD" offset="0%"/>
        <stop stop-color="#FFFFFF" offset="100%"/>
    </linearGradient>
    <linearGradient transform="matrix(1 0 0 1 0 0)"  id="234" x1="63.9975" y1="3.6432" x2="63.9975" y2="120.7824">
        <stop stop-color="#B0BEC5" offset="0%"/>
        <stop stop-color="#546E7A" offset="100%"/>
    </linearGradient>
</defs>

<g transform="matrix(0.5 0 0 0.5 0 0)">
	<g>
		<g>
            <path d="M100.72 81.2L101.03 80.869995C 101.42 78.45 101.75 76.009995 102.049995 73.579994L102.049995 73.579994L97.729996 78.149994L92.579994 72.909996L97.88 67.34L102.27 71.77C 102.479996 69.99 102.67 68.21999 102.85 66.46L102.85 66.46L100.74 64.34L103.34 61.599995C 103.67999 58.219994 104.02 54.929993 104.42 51.809994L104.42 51.809994L100.14 47.529995L105.43 42.029995L105.94 42.529995C 106.03 42.129993 106.11 41.739994 106.200005 41.349995C 107.83 34.409996 114.25001 29.209995 114.19 27.119995C 114.19 27.079994 114.18 27.039995 114.18 26.989996L114.18 26.989996L112.9 28.319996L107.520004 23.039995L110.240005 20.219995C 109.270004 19.389996 108.15001 18.599995 106.87 17.849995L106.87 17.849995L104.600006 20.189995L99.25001 14.949995L99.66001 14.529995C 96.91001 13.529995 93.83001 12.649995 90.500015 11.899995L90.500015 11.899995L93.60001 14.949995L88.790016 19.859995L83.92001 15.049995L87.60001 11.309996C 86.030014 11.009995 84.41001 10.739996 82.750015 10.509995L82.750015 10.509995L81.06001 12.2199955L78.83001 10.009995C 75.51001 9.649996 72.05001 9.419995 68.48001 9.319996L68.48001 9.319996L65.19001 12.599996L61.88001 9.299995C 58.49001 9.369995 55.19001 9.569996 52.01001 9.879995L52.01001 9.879995L49.35001 12.519996L47.29001 10.439996C 45.62001 10.669995 44.000008 10.939996 42.42001 11.229996L42.42001 11.229996L46.49001 15.349996L41.19001 20.599995L36.12001 15.439995L39.88001 11.739995C 36.11001 12.549995 32.660007 13.539995 29.610008 14.669995L29.610008 14.669995L30.410007 15.489995L25.550007 20.259995L23.050007 17.699995C 21.740007 18.459995 20.580008 19.249994 19.590008 20.079994L19.590008 20.079994L22.590008 23.169994L17.420008 28.239994L15.540008 26.289993C 15.500008 26.559994 15.470008 26.839993 15.460008 27.119993C 15.400007 29.059994 20.070007 32.869995 22.030008 38.969994L22.030008 38.969994L22.330008 39.289993L22.170008 39.449993C 22.260008 39.759995 22.350008 40.069992 22.430008 40.38999C 22.700008 41.539993 22.970009 42.77999 23.230007 44.09999L23.230007 44.09999L25.140007 42.19999L30.260006 47.51999L24.900005 52.87999L24.810005 52.77999C 25.200005 55.09999 25.580006 57.54999 25.970005 60.069992L25.970005 60.069992L29.820005 64.10999L27.000006 66.95999C 27.250006 68.65999 27.500006 70.37999 27.750006 72.10999L27.750006 72.10999L32.670006 67.10999L37.540005 72.21999L32.140003 77.73999L27.930004 73.28999C 28.290005 75.729996 28.640003 78.189995 29.000004 80.63999L29.000004 80.63999L29.150003 80.799995L29 80.93C 29.26 82.68 29.52 84.42 29.78 86.15L29.78 86.15L32 83.87L37.35 89.54L31.3 95.78C 31.599998 97.57 31.9 99.299995 32.2 100.97L32.2 100.97L40.260002 92.630005L45.5 98.19L36.739998 107.270004L39.8 110.29L48.44 101.3L53.98 107.18L45.64 115.91L48.73 118.96001L56.95 110.32001L62.100002 115.78001L56.11 122.11001C 58.3 122.130005 60.38 122.07001 62.2 122.03001L62.2 122.03001L65.1 118.950005L67.86 121.87C 69.73 121.740005 71.51 121.490005 73.18 121.130005L73.18 121.130005L68.1 115.76L73.509995 110.020004L81.27999 118.18001C 82.59999 117.46001 83.829994 116.66001 84.97999 115.770004L84.97999 115.770004L76.47999 106.880005L81.83999 101.19L90.47999 110.18C 91.359985 109.03 92.179985 107.81 92.929985 106.53L92.929985 106.53L84.76999 98.08L90 92.56L96.44 99.189995C 97 97.71999 97.51 96.20999 97.98 94.67L97.98 94.67L92.920006 89.479996L97.83 84.28L100.020004 86.51C 100.36 84.840004 100.670006 83.15 100.950005 81.44L100.950005 81.44L100.72 81.2zM89.6 69.89L84.06 64.25L89.36 58.739998L94.9 64.34L89.6 69.89zM69.99 55.88L65.11 60.91L59.760002 55.42L64.64 50.42L69.99 55.88zM67.54 47.45L72.83 42.03L78.18 47.44L72.89 52.89L67.54 47.45zM56.87 52.46L52 47.46L56.87 42.51L61.739998 47.48L56.87 52.46zM62.18 63.94L56.99 69.29L51.640003 63.74L56.83 58.420002L62.18 63.94zM65.09 66.94L70.39 72.39L65.18 77.79L59.9 72.31L65.09 66.94zM68.02 63.91L72.899994 58.86L78.20999 64.28L73.30999 69.36L68.02 63.91zM75.8 55.86L81.090004 50.39L86.420006 55.78L81.12 61.28L75.8 55.86zM83.94 47.43L89.01 42.190002L94.350006 47.54L89.270004 52.81L83.94 47.43zM81.03 44.5L75.68 39.11L80.75 33.91L86.1 39.27L81.03 44.5zM72.79 36.19L67.92 31.279999L73 26.14L77.87 31.02L72.79 36.19zM69.94 39.11L64.65 44.510002L59.780003 39.56L65.07 34.190002L69.94 39.11zM56.92 36.65L51.93 31.570002L57.23 26.260002L62.21 31.300003L56.92 36.65zM54.01 39.6L49.14 44.53L44.129997 39.39L49.01 34.5L54.01 39.6zM46.2 47.5L41.02 52.739998L36 47.54L41.19 42.34L46.2 47.5zM49.06 50.45L53.93 55.46L48.75 60.76L43.88 55.719997L49.06 50.45zM48.7 66.75L54.05 72.31L48.7 77.829994L43.350002 72.229996L48.7 66.75zM56.97 75.34L62.25 80.829994L56.89 86.38999L51.62 80.87999L56.97 75.34zM65.19 83.89L70.73 89.65L65.37 95.270004L59.83 89.47L65.19 83.89zM68.13 80.83L73.34 75.41L78.89 81.12L73.68 86.58L68.13 80.83zM76.26 72.37L81.16 67.270004L86.71001 72.920006L81.810005 78.05L76.26 72.37zM102.84 56.04L97.759995 61.36L92.21999 55.77L97.299995 50.49L102.84 56.04zM97.19 44.6L91.840004 39.26L97.11 33.8L102.47 39.12L97.19 44.6zM104.72 25.93L110.1 31.220001L105.28 36.21L99.909996 30.9L104.72 25.93zM96.46 17.81L101.81 23.07L97 28.03L91.65 22.740002L96.46 17.81zM88.85 25.6L94.2 30.91L88.92 36.35L83.57 31.009998L88.85 25.6zM81.1 17.91L85.97 22.74L80.69 28.13L75.82 23.269999L81.1 17.91zM73.29 10.16L78.24 15.07L72.96 20.41L68 15.46L73.29 10.16zM70.14 23.28L65.07 28.41L60.09 23.39L65.17 18.3L70.14 23.28zM57.21 10.33L62.329998 15.46L57.25 20.54L52.13 15.380001L57.21 10.33zM49.28 18.21L54.399998 23.39L49.1 28.689999L43.98 23.48L49.28 18.21zM46.17 31.61L41.289997 36.48L36.17 31.22L41.039997 26.38L46.17 31.61zM33.16 18.35L38.239998 23.53L33.37 28.35L28.3 23.14L33.16 18.35zM25.24 36.39L20.17 31.13L25.34 26.039999L30.42 31.259998L25.24 36.39zM28.05 39.3L33.23 34.16L38.35 39.43L33.17 44.61L28.05 39.3zM32.74 61.13L27.7 55.86L33.06 50.49L38.09 55.72L32.74 61.13zM35.6 64.12L40.949997 58.690002L45.819996 63.750004L40.469997 69.22L35.6 64.12zM40.34 86.46L34.99 80.81L40.390003 75.27L45.74 80.89L40.34 86.46zM48.5 95.08L43.25 89.53L48.65 83.94L53.910004 89.46L48.5 95.08zM56.98 104.05L51.44 98.19L56.85 92.560005L62.39 98.380005L56.98 104.05zM65.1 112.63L59.949997 107.189995L65.36 101.49999L70.51 106.90999L65.1 112.63zM73.49 103.77L68.34 98.38L73.7 92.75L78.85 98.1L73.49 103.77zM81.79 94.99L76.64 89.659996L81.85 84.17999L87 89.479996L81.79 94.99zM89.92 86.39L84.77 81.11L89.67 75.96L94.82 81.21L89.92 86.39z" stroke="none" fill="url(#1)" />
            <path d="M64.15 94.15C 49.190002 94.15 33.97 99.04 33.82 108.450005C 33.66 117.96001 48.96 122.97 64.15 122.97C 79.340004 122.97 94.64 117.96 94.48 108.45C 94.33 99.03 79.11 94.15 64.15 94.15z" stroke="none" fill="#424242" fill-rule="nonzero" />
            <path d="M115.11 23.74C 115.090004 23.44 115.020004 23.08 114.91 22.65C 114.86 22.44 114.8 22.21 114.740005 21.97C 114.65001 21.74 114.560005 21.49 114.47001 21.23C 113.71001 19.099998 111.80001 16.61 109.07001 14.549999C 106.340004 12.49 102.82001 10.709999 98.72001 9.23C 94.62001 7.7699995 89.93001 6.5999994 84.79001 5.7099996C 79.65001 4.8599997 74.07001 4.2699995 68.14001 4.0699997C 62.22 3.9 55.96 4 49.51 4.73C 43.059998 5.44 36.39 6.65 29.729998 8.940001C 26.399998 10.120001 23.059998 11.570001 19.869999 13.780001C 18.279999 14.900001 16.72 16.220001 15.359999 17.98C 15.009998 18.4 14.719998 18.91 14.409999 19.39C 14.139998 19.92 13.839999 20.42 13.629999 21L13.629999 21L13.309999 21.86C 13.209999 22.18 13.129999 22.560001 13.049999 22.91L13.049999 22.91L12.94 23.45L12.9 23.79L12.83 24.44C 12.8 24.92 12.82 24.640001 12.82 24.78L12.82 24.78L12.82 24.900002L12.82 25.140001L12.83 25.62C 12.83 25.94 12.87 26.25 12.92 26.560001C 12.97 26.87 13.01 27.180002 13.08 27.490002L13.08 27.490002L13.33 28.37C 13.5 28.970001 13.76 29.480001 13.99 30.03C 14.2699995 30.52 14.53 31.060001 14.84 31.5C 16.07 33.35 17.56 34.77 19.09 35.98C 19.47 36.27 19.85 36.56 20.23 36.829998C 21.91 47.93 23.57 59.17 25.349998 70.53L25.349998 70.53L31.339998 108.93C 31.38 110.06 31.649998 111.15 32.059998 112.06C 32.53 113.11 33.12 113.99 33.76 114.71C 35.039997 116.17 36.44 117.17 37.839996 118.04C 40.659996 119.71 43.559998 120.76 46.479996 121.58C 49.399994 122.380005 52.339996 122.93 55.289997 123.29C 56.76 123.48 58.239998 123.590004 59.719997 123.69C 60.46 123.73 61.199997 123.770004 61.96 123.79C 62.75 123.82 63.379997 123.82 64.159996 123.83C 70.06999 123.8 75.99 123.19 81.829994 121.590004C 84.74 120.770004 87.63999 119.72 90.45999 118.05C 91.85999 117.19 93.259995 116.18 94.53999 114.72C 95.17999 114 95.77 113.11 96.23999 112.07C 96.649994 111.15 96.91999 110.06 96.95999 108.93L96.95999 108.93L102.66999 70.81C 104.399994 59.339996 105.99999 47.989998 107.62999 36.789997C 108.39999 36.26 109.11999 35.709995 109.77999 35.149998C 112.399994 32.929996 114.13999 30.319998 114.72999 28.139997C 114.80999 27.869997 114.87999 27.619997 114.93999 27.379997C 114.98999 27.099997 115.039986 26.829998 115.069984 26.579998C 115.09998 26.329998 115.12998 26.099998 115.15998 25.889997C 115.16998 25.709997 115.16998 25.629997 115.16998 25.509998C 115.179985 25.089998 115.179985 24.88 115.179985 24.88L115.179985 24.88L115.179985 24.679998C 115.2 24.64 115.16 24.34 115.11 23.74zM97.02 69.71L95.81 77.25L92.079994 73.28L97.399994 67.42C 97.27 68.18 97.14 68.94 97.02 69.71zM48.2 115.15C 48.170002 115.14 48.13 115.130005 48.100002 115.12C 47.160004 114.86 46.24 114.560005 45.33 114.240005L45.33 114.240005L41.640003 110.11001L47.360004 103.87001L52.880005 110.01001L48.2 115.15zM28.77 46.57L27.37 48.04C 27.160002 46.81 26.95 45.58 26.730001 44.350002L26.730001 44.350002L28.77 46.57zM31.53 49.57L36.920002 55.45L31.210003 61.47L29.300003 59.39C 28.940002 57.27 28.580004 55.15 28.220003 53.03L28.220003 53.03L31.53 49.57zM36.87 43.97C 37.559998 44.15 38.25 44.33 38.94 44.49C 40.5 44.86 42.05 45.18 43.6 45.47L43.6 45.47L44.969997 46.95L39.78 52.43L34.39 46.57L36.87 43.97zM64.36 49.76L69.5 55.25L63.91 61.260002L58.77 55.730003L64.36 49.76zM83.34 114.11C 82.38 114.47 81.39 114.79 80.38 115.07L80.38 115.07L75.979996 110.27L81.549995 104.07L86.99999 110L83.34 114.11zM39.38 70.37L34 64.51L39.7 58.480003L45.06 64.32001L39.38 70.37zM47.87 67.38L53.01 72.979996L47.35 79.06L42.19 73.439995L47.87 67.38zM39.3 76.54L44.46 82.18L38.94 88.12L33.8 82.420006L39.3 76.54zM47.31 85.29L52.97 91.48L47.420002 97.51L41.780003 91.26L47.31 85.29zM50.2 82.17L55.850002 76.07L61.49 82.22L55.86 88.340004L50.2 82.17zM64.36 79.11L58.72 72.98L63.91 67.380005L69.55 73.47L64.36 79.11zM72.42 76.56L77.939995 82.52L72.74999 88.21999L67.229996 82.229996L72.42 76.56zM64.36 85.35L69.88 91.36L64.27 97.51L58.729996 91.48L64.36 85.35zM72.78 94.51L78.63 100.880005L73.049995 107.060005L67.17999 100.66L72.78 94.51zM81.49 97.71L75.64 91.36L80.83 85.64L86.68 91.95L81.49 97.71zM75.26 73.47L80.850006 67.380005L86.37 73.28001L80.78 79.41L75.26 73.47zM83.66 64.32L89.020004 58.48L94.54 64.32L89.18 70.19L83.66 64.32zM80.79 61.27L75.15 55.260002L80.51 49.480003L86.15 55.450005L80.79 61.27zM77.98 64.32L72.39 70.39L66.75 64.32L72.34 58.29L77.98 64.32zM61.07 64.32L55.88 69.9L50.74 64.32L55.93 58.77L61.07 64.32zM47.93 61.27L42.57 55.45L47.76 49.95L53.12 55.73L47.93 61.27zM31.11 67.58L36.48 73.46L32.4 77.8L31 69.4C 30.92 68.92 30.83 68.43 30.75 67.950005L30.75 67.950005L31.11 67.58zM36.01 91.26L34.859997 92.5L34.339996 89.4L36.01 91.26zM35.74 97.77L38.850002 94.409996L44.49 100.67999L38.77 106.899994L36.920002 104.81999L35.74 97.77zM50.29 100.69L55.850002 94.630005L61.390003 100.68001L55.810005 106.80001L50.29 100.69zM64.28 103.86L70.15 110.28L64.55 116.49L58.700005 110.009995L64.28 103.86zM73.09 113.49L75.509995 116.14C 73.71999 116.45 71.909996 116.68 70.079994 116.83L70.079994 116.83L73.09 113.49zM89.87 106.8L84.420006 100.89L89.61001 95.11L92.44001 98.16L91.31001 105.19L89.87 106.8zM92.45 91.96L93.649994 90.62L93.28999 92.86L92.45 91.96zM94.9 82.85L89.520004 88.81L83.670006 82.52L89.26001 76.369995L94.96001 82.45999L94.9 82.85zM97.32 61.27L91.8 55.45L97.37 49.38L99.920006 52.050003C 99.490005 54.630005 99.07001 57.22 98.65001 59.810005L98.65001 59.810005L97.32 61.27zM100.12 46.38L101.020004 45.4C 100.93001 45.940002 100.840004 46.49 100.75001 47.030003L100.75001 47.030003L100.12 46.38zM97.25 43.39L96.24 42.329998C 97.299995 41.96 98.32 41.57 99.299995 41.16L99.299995 41.16L97.25 43.39zM91.93 43.69L94.5 46.379997L88.93 52.429996L83.29 46.479996L84.200005 45.499996C 84.62 45.419994 85.05 45.349995 85.46001 45.269997C 87.72 44.8 89.87 44.27 91.93 43.69zM77.62 46.53L72.310005 52.23L67.64001 47.25C 67.850006 47.24 68.060005 47.24 68.28001 47.23C 71.49 47.14 74.61 46.89 77.62 46.53zM58.84 47.18C 59.59 47.21 60.33 47.23 61.08 47.260002L61.08 47.260002L55.960003 52.710003L50.600002 46.950005L50.99 46.540005C 53.63 46.83 56.26 47.06 58.84 47.18zM31.63 43.58L29.96 41.77C 30.81 42.09 31.65 42.39 32.5 42.670002L32.5 42.670002L31.63 43.58zM53.08 116.19L55.77 113.23L59.07 116.89001C 58.05 116.82001 57.03 116.740005 56.01 116.61001C 55.03 116.5 54.05 116.36 53.08 116.19zM109.14 25.4C 109.12 25.449999 109.1 25.5 109.08 25.55C 109.060005 25.609999 109.05 25.66 109.04 25.73C 109 25.83 108.96 25.939999 108.92 26.06C 108.63 26.98 107.68 28.46 105.68 30.02C 103.68 31.58 100.71 33.15 97.020004 34.440002C 93.32001 35.730003 88.920006 36.800003 84.03001 37.58C 79.130005 38.350002 73.73 38.81 68.00001 39.010002C 66.58001 39.06 65.090004 39.06 63.660007 39.070004C 62.910007 39.070004 62.15001 39.060005 61.38001 39.060005C 60.65001 39.040005 59.910007 39.020004 59.17001 39.010006C 56.16001 38.910007 53.09001 38.690006 50.000008 38.330006C 43.820007 37.640007 37.490005 36.410007 31.520008 34.310005C 28.570007 33.240005 25.690008 31.930004 23.340008 30.230005C 22.170008 29.390005 21.150007 28.440006 20.440008 27.470005C 20.240007 27.230005 20.140009 26.980005 19.970009 26.740005C 19.870008 26.500006 19.710009 26.260006 19.65001 26.020006L19.65001 26.020006L19.530008 25.670006L19.460009 25.330006C 19.430008 25.220005 19.41001 25.100006 19.41001 24.990005L19.41001 24.990005L19.40001 24.820005L19.390009 24.730005L19.380009 24.690004C 19.380009 24.740004 19.380009 24.650003 19.380009 24.650003L19.380009 24.650003L19.41001 24.220003C 19.42001 24.120003 19.42001 23.990004 19.44001 23.910004C 19.45001 23.880003 19.47001 23.840004 19.480011 23.810003C 19.500011 23.740004 19.500011 23.690002 19.520012 23.590004L19.520012 23.590004L19.640013 23.230003C 19.700012 22.990004 19.860012 22.740004 19.960012 22.480003C 20.130013 22.230003 20.240013 21.970003 20.440012 21.720003C 21.160011 20.690002 22.200012 19.690002 23.390013 18.790003C 25.780012 16.990004 28.670013 15.560003 31.640013 14.390003C 34.610012 13.220003 37.700012 12.300003 40.80001 11.590003C 43.90001 10.870003 47.00001 10.310003 50.08001 9.900003C 56.25 9.13 62.27 8.84 68 9.02C 73.68 9.190001 79.09 9.72 83.96 10.660001C 88.84 11.56 93.229996 12.800001 96.92 14.26C 100.61 15.71 103.6 17.4 105.64 19.04C 107.68 20.7 108.659996 22.25 108.94 23.2C 109.21 24.01 109.19 24.460001 109.200005 24.59C 109.19 24.7 109.18001 24.86 109.170006 25.08C 109.16 25.17 109.16 25.32 109.14 25.4z" stroke="none" fill="url(#234)" />
			<g>
                <path d="M63.48 7.18C 65.01 7.18 66.61 7.2 68.229996 7.25C 73.729996 7.43 79.2 7.9700003 84.479996 8.85C 89.509995 9.72 94.03 10.85 97.909996 12.2300005C 101.82 13.64 105.03999 15.290001 107.46999 17.130001C 109.98999 19.03 111.38999 21.11 111.869995 22.45L111.869995 22.45L112.09 23.050001L112.229996 23.590002C 112.329994 23.980001 112.34 24.130003 112.34 24.150002C 112.34 24.180002 112.34 24.2 112.35 24.230001L112.35 24.230001L112.42 24.980001L112.409996 25.590002C 112.409996 25.650002 112.409996 25.700003 112.409996 25.770002L112.409996 25.770002L112.409996 25.790003L112.34 26.320004C 112.32 26.480003 112.28999 26.660004 112.259995 26.840004L112.259995 26.840004L112.20999 27.040005L112.079994 27.500004C 111.71999 28.840004 110.46999 30.990004 108.09 33.010002C 107.509995 33.500004 106.85999 33.99 106.17 34.47C 105.479996 34.940002 105.03 35.68 104.909996 36.510002C 104.439995 39.730003 103.979996 42.97 103.509995 46.210003C 102.369995 54.15 101.17999 62.350002 99.95999 70.520004L99.95999 70.520004L94.24999 108.65001C 94.229996 108.76001 94.21999 108.87001 94.21999 108.98001C 94.189995 109.68001 94.02999 110.41001 93.759995 111.02001C 93.45 111.710014 93.049995 112.35001 92.549995 112.91001C 91.45 114.16001 90.229996 115.00001 89.17 115.65001C 86.93 116.97001 84.5 117.97001 81.29 118.87001C 76.17 120.27001 70.65 120.97001 64.42 121.00001C 64.17 121.00001 63.929996 120.990005 63.699997 120.990005C 63.249996 120.990005 62.819996 120.98 62.28 120.96001C 61.539997 120.94001 60.809998 120.90001 60.16 120.87001C 58.45 120.76001 57.14 120.64001 55.9 120.49001C 52.920002 120.13001 50.18 119.60001 47.54 118.87001C 44.31 117.96001 41.88 116.97001 39.64 115.65001C 38.59 115.00001 37.36 114.170006 36.26 112.91001C 35.769997 112.35001 35.359997 111.710014 35.05 111.02001C 34.78 110.41001 34.61 109.69001 34.59 108.99001C 34.59 108.87001 34.57 108.76001 34.56 108.65002L34.56 108.65002L28.570002 70.24002C 27.270002 61.960022 26.020002 53.640022 24.810001 45.59002C 24.350002 42.56002 23.900002 39.55002 23.45 36.54002C 23.33 35.73002 22.880001 35.01002 22.220001 34.54002C 21.87 34.29002 21.53 34.04002 21.2 33.79002C 19.630001 32.55002 18.480001 31.35002 17.580002 30.00002C 17.560001 29.970018 17.54 29.94002 17.520002 29.910019C 17.410002 29.75002 17.250002 29.470018 17.110003 29.20002C 17.050003 29.09002 16.990002 28.98002 16.930002 28.87002C 16.880003 28.77002 16.840002 28.66002 16.790003 28.56002C 16.650003 28.24002 16.530003 27.96002 16.460003 27.72002L16.460003 27.72002L16.240004 26.94002C 16.210003 26.79002 16.190004 26.63002 16.160004 26.47002L16.160004 26.47002L16.120003 26.22002C 16.090002 26.04002 16.070004 25.90002 16.070004 25.79002C 16.070004 25.77002 16.070004 25.74002 16.070004 25.72002L16.070004 25.72002L16.060003 25.28002L16.060003 25.06002L16.060003 24.98002C 16.060003 24.97002 16.060003 24.96002 16.060003 24.94002L16.060003 24.94002L16.060003 24.87002L16.120003 24.34002L16.150003 24.11002L16.230003 23.71002C 16.280003 23.48002 16.340004 23.20002 16.400003 22.99002L16.400003 22.99002L16.690004 22.20002C 16.770004 21.97002 16.920004 21.70002 17.080004 21.39002C 17.130003 21.29002 17.190004 21.19002 17.240004 21.08002C 17.310003 20.97002 17.380003 20.860022 17.450003 20.750021C 17.620003 20.49002 17.790003 20.22002 17.920002 20.06002C 17.940002 20.03002 17.960003 20.010021 17.980001 19.98002C 18.970001 18.690022 20.2 17.56002 21.820002 16.420021C 25.030003 14.200021 28.400002 12.860022 30.95 11.950022C 36.59 10.000022 42.85 8.670022 50.09 7.8800216C 54.28 7.41 58.67 7.18 63.48 7.18zM63.48 4.18C 59.04 4.18 54.43 4.3799996 49.72 4.91C 43.26 5.62 36.6 6.83 29.93 9.12C 26.6 10.3 23.26 11.75 20.07 13.96C 18.48 15.08 16.92 16.4 15.559999 18.16C 15.209999 18.58 14.919999 19.09 14.61 19.57C 14.339999 20.1 14.04 20.6 13.83 21.18L13.83 21.18L13.51 22.04C 13.41 22.36 13.33 22.740002 13.25 23.09L13.25 23.09L13.14 23.630001L13.1 23.970001L13.030001 24.62C 13.01 24.890001 13.01 24.92 13.02 24.92C 13.02 24.92 13.02 24.92 13.02 24.92C 13.02 24.92 13.02 24.93 13.02 24.960001L13.02 24.960001L13.02 25.080002L13.02 25.320002L13.030001 25.800001C 13.030001 26.12 13.070001 26.43 13.120001 26.740002C 13.170001 27.050001 13.210001 27.360003 13.280001 27.670002L13.280001 27.670002L13.530001 28.550001C 13.700001 29.150002 13.960001 29.660002 14.190001 30.210001C 14.47 30.7 14.7300005 31.240002 15.040001 31.68C 16.27 33.53 17.76 34.95 19.300001 36.16C 19.68 36.45 20.060001 36.74 20.44 37.01C 22.12 48.11 23.78 59.35 25.57 70.72L25.57 70.72L31.56 109.130005C 31.6 110.26 31.869999 111.350006 32.28 112.270004C 32.75 113.32001 33.34 114.200005 33.98 114.920006C 35.26 116.380005 36.66 117.380005 38.059998 118.25001C 40.879997 119.920006 43.78 120.97001 46.699997 121.79001C 49.619995 122.59001 52.559998 123.14001 55.51 123.50001C 56.989998 123.69001 58.46 123.80001 59.94 123.90001C 60.68 123.94001 61.42 123.98001 62.18 124.00001C 62.97 124.03001 63.6 124.03001 64.38 124.04001C 70.28999 124.01001 76.21 123.40001 82.049995 121.80001C 84.96 120.98001 87.85999 119.93001 90.689995 118.26001C 92.09 117.40001 93.49 116.39001 94.77 114.93001C 95.409996 114.21001 96 113.32001 96.46999 112.28001C 96.88 111.36001 97.149994 110.270004 97.189995 109.14001L97.189995 109.14001L102.899994 71.01001C 104.63 59.53001 106.229996 48.180008 107.85999 36.98001C 108.62999 36.450012 109.34999 35.90001 110.009995 35.34001C 112.63 33.12001 114.369995 30.510012 114.95999 28.320011C 115.03999 28.05001 115.10999 27.80001 115.16999 27.56001C 115.21999 27.28001 115.26999 27.010012 115.29999 26.760012C 115.32999 26.510012 115.359985 26.280012 115.389984 26.070011C 115.39999 25.89001 115.39999 25.81001 115.39999 25.690012C 115.40999 25.270012 115.40999 25.060013 115.40999 25.060013L115.40999 25.060013L115.40999 24.860012C 115.40999 24.860012 115.37999 24.550013 115.31999 23.960012C 115.299995 23.660013 115.229996 23.300013 115.119995 22.870012C 115.06999 22.660013 115.009995 22.430012 114.95 22.190012C 114.86 21.960012 114.77 21.710012 114.68 21.450012C 113.92 19.320011 112.01 16.830013 109.270004 14.770012C 106.54 12.710012 103.020004 10.9200115 98.920006 9.450012C 94.82001 7.990012 90.130005 6.820012 84.990005 5.930012C 79.850006 5.0800123 74.270004 4.490012 68.33 4.2900124C 66.74 4.21 65.12 4.18 63.48 4.18z" stroke="none" fill="#424242" fill-rule="nonzero" fill-opacity="0.2" />
			</g>
		</g>
	</g>
</g>
</svg>