<?xml version="1.0" standalone="no"?>
<!DOCTYPE svg PUBLIC "-//W3C//DTD SVG 1.0//EN" "http://www.w3.org/TR/2001/REC-SVG-20010904/DTD/svg10.dtd">
<svg xmlns="http://www.w3.org/2000/svg" xmlns:xlink="http://www.w3.org/1999/xlink" id="body_1" width="27" height="35">

<g transform="matrix(0.84375 0 0 0.85365856 0 0)">
	<g transform="matrix(0.7804878 0 0 0.78846157 0 0)">
		<g>
			<g>
				<g transform="matrix(0.863123 0 0 0.945414 -30.0617 -50.5301)">
					<g transform="matrix(0.3 0 0 0.3 0 0)">
						<g transform="matrix(4.17 0 0 4.17 200 229.17)">
                            <path transform="matrix(1 0 0 1 -24 -31)"  d="M19.87923 51.75148C 14.8792305 51.75148 14.8792305 45.75148 14.8792305 45.75148L14.8792305 45.75148L14.8792305 39.75148L24.87923 39.75148L24.87923 45.75148C 24.87923 45.75148 24.87923 51.75148 19.87923 51.75148z" stroke="#FFFFFF" stroke-width="1" fill="#FF9800" fill-rule="nonzero" stroke-opacity="0" />
						</g>
						<g transform="matrix(4.17 0 0 4.17 200 179.17)">
                            <path transform="matrix(1 0 0 1 -24 -19)"  d="M30.87923 33.75148C 30.87923 34.85695 29.984701 35.75148 28.87923 35.75148C 27.77376 35.75148 26.87923 34.85695 26.87923 33.75148C 26.87923 32.64601 27.77376 31.75148 28.87923 31.75148C 29.984701 31.75148 30.87923 32.64601 30.87923 33.75148M12.8792305 33.75148C 12.8792305 32.64601 11.9847 31.75148 10.8792305 31.75148C 9.773761 31.75148 8.8792305 32.64601 8.8792305 33.75148C 8.8792305 34.85695 9.773761 35.75148 10.8792305 35.75148C 11.9847 35.75148 12.8792305 34.85695 12.8792305 33.75148" stroke="#FFFFFF" stroke-width="1" fill="#FFA726" fill-rule="nonzero" stroke-opacity="0" />
						</g>
						<g transform="matrix(4.17 0 0 4.17 200 177.54)">
                            <path transform="matrix(1 0 0 1 -24 -18.61)"  d="M28.87923 27.75148C 28.87923 20.11476 10.8792305 22.77882 10.8792305 27.75148L10.8792305 27.75148L10.8792305 34.75148C 10.8792305 39.72414 14.90657 43.75148 19.87923 43.75148C 24.85189 43.75148 28.87923 39.72414 28.87923 34.75148L28.87923 34.75148L28.87923 27.75148z" stroke="#FFFFFF" stroke-width="1" fill="#FFB74D" fill-rule="nonzero" stroke-opacity="0" />
						</g>
						<g transform="matrix(4.17 0 0 4.17 200 147.92)">
                            <path transform="matrix(1 0 0 1 -24 -11.5)"  d="M19.87923 18.75148C 13.80501 18.75148 9.8792305 23.67726 9.8792305 29.75148L9.8792305 29.75148L9.8792305 32.03664L11.8792305 33.75148L11.8792305 28.75148L23.87923 24.75148L27.87923 28.75148L27.87923 33.75148L29.87923 32.00929L29.87923 29.751478C 29.87923 25.728039 28.84017 21.735859 23.87923 20.751478L23.87923 20.751478L22.87923 18.751478L19.87923 18.751478L19.87923 18.75148z" stroke="#FFFFFF" stroke-width="1" fill="#424242" fill-rule="nonzero" stroke-opacity="0" />
						</g>
						<g transform="matrix(4.17 0 0 4.17 200 179.17)">
                            <path transform="matrix(1 0 0 1 -24 -19)"  d="M22.87923 33.75148C 22.87923 33.2007 23.328451 32.75148 23.87923 32.75148C 24.43001 32.75148 24.87923 33.2007 24.87923 33.75148C 24.87923 34.30226 24.43001 34.75148 23.87923 34.75148C 23.328451 34.75148 22.87923 34.30226 22.87923 33.75148M14.8792305 33.75148C 14.8792305 34.30226 15.32845 34.75148 15.8792305 34.75148C 16.43001 34.75148 16.87923 34.30226 16.87923 33.75148C 16.87923 33.2007 16.43001 32.75148 15.8792305 32.75148C 15.32845 32.75148 14.8792305 33.2007 14.8792305 33.75148" stroke="#FFFFFF" stroke-width="1" fill="#784719" fill-rule="nonzero" stroke-opacity="0" />
						</g>
						<g transform="matrix(4.17 0 0 4.17 200 256.25)">
                            <path transform="matrix(1 0 0 1 -24 -37.5)"  d="M24.87923 45.75148C 24.87923 45.75148 23.87923 49.75148 19.87923 49.75148C 15.8792305 49.75148 14.8792305 45.75148 14.8792305 45.75148C 14.8792305 45.75148 3.8792305 47.73586 3.8792305 58.75148L3.8792305 58.75148L35.87923 58.75148C 35.87923 47.77492 24.87923 45.75148 24.87923 45.75148" stroke="#FFFFFF" stroke-width="1" fill="#4FC3F7" fill-rule="nonzero" stroke-opacity="0" />
						</g>
						<g transform="matrix(4.17 0 0 4.17 199.99 241.67)">
                            <path transform="matrix(1 0 0 1 -24 -34)"  d="M19.87923 51.75148C 24.87923 51.75148 26.62532 47.82179 26.828451 46.32179C 25.672201 45.899918 24.87923 45.75148 24.87923 45.75148C 24.87923 45.75148 23.87923 49.75148 19.87923 49.75148C 15.8792305 49.75148 14.8792305 45.75148 14.8792305 45.75148C 14.8792305 45.75148 14.08236 45.89601 12.92611 46.31789C 13.133141 47.81398 14.8792305 51.75148 19.87923 51.75148z" stroke="#FFFFFF" stroke-width="1" fill="#01579B" fill-rule="nonzero" stroke-opacity="0" />
						</g>
						<g transform="matrix(4.17 0 0 4.17 250 258.33)">
                            <path transform="matrix(1 0 0 1 -36 -38)"  d="M41.87923 52.75148C 41.87923 58.27492 37.40267 62.75148 31.87923 62.75148C 26.355791 62.75148 21.87923 58.27492 21.87923 52.75148C 21.87923 47.22804 26.355791 42.75148 31.87923 42.75148C 37.40267 42.75148 41.87923 47.22804 41.87923 52.75148" stroke="#FFFFFF" stroke-width="1" fill="#43A047" fill-rule="nonzero" stroke-opacity="0" />
						</g>
						<g transform="matrix(4.17 0 0 4.17 250 258.33)">
                            <path transform="matrix(1 0 0 1 -36 -38)"  d="M29.87923 46.75148L33.87923 46.75148L33.87923 58.75148L29.87923 58.75148L29.87923 46.75148z" stroke="#FFFFFF" stroke-width="1" fill="#FFFFFF" fill-rule="nonzero" stroke-opacity="0" />
						</g>
						<g transform="matrix(4.17 0 0 4.17 250 258.33)">
                            <path transform="matrix(1 0 0 1 -36 -38)"  d="M25.87923 50.75148L37.87923 50.75148L37.87923 54.75148L25.87923 54.75148L25.87923 50.75148z" stroke="#FFFFFF" stroke-width="1" fill="#FFFFFF" fill-rule="nonzero" stroke-opacity="0" />
						</g>
					</g>
				</g>
			</g>
		</g>
	</g>
</g>
</svg>